<svg width="24" height="14" viewBox="0 0 24 14" fill="none" xmlns="http://www.w3.org/2000/svg">
<g clip-path="url(#clip0_15_191)">
<path d="M8.11833 1.91508C7.95427 1.75123 7.73187 1.65919 7.5 1.65919C7.26812 1.65919 7.04573 1.75123 6.88167 1.91508L3.58058 5.21442C3.41644 5.37856 3.32422 5.6012 3.32422 5.83333C3.32422 6.06547 3.41644 6.2881 3.58058 6.45225C3.74473 6.6164 3.96736 6.70861 4.1995 6.70861C4.43164 6.70861 4.65427 6.6164 4.81842 6.45225L6.625 4.64625V11.375C6.625 11.6071 6.71719 11.8296 6.88128 11.9937C7.04537 12.1578 7.26793 12.25 7.5 12.25C7.73206 12.25 7.95462 12.1578 8.11872 11.9937C8.28281 11.8296 8.375 11.6071 8.375 11.375V4.64625L10.181 6.45225C10.2623 6.53353 10.3588 6.598 10.465 6.64199C10.5712 6.68597 10.685 6.70861 10.7999 6.70861C10.9149 6.70861 11.0287 6.68597 11.1349 6.64199C11.2411 6.598 11.3376 6.53353 11.4188 6.45225C11.5001 6.37097 11.5646 6.27448 11.6086 6.16829C11.6526 6.0621 11.6752 5.94828 11.6752 5.83333C11.6752 5.71839 11.6526 5.60457 11.6086 5.49838C11.5646 5.39218 11.5001 5.29569 11.4188 5.21442L8.11833 1.91508Z" fill="white"/>
</g>
<g clip-path="url(#clip1_15_191)">
<path d="M15.8817 12.0849C16.0457 12.2488 16.2681 12.3408 16.5 12.3408C16.7319 12.3408 16.9543 12.2488 17.1183 12.0849L20.4194 8.78558C20.5836 8.62144 20.6758 8.3988 20.6758 8.16667C20.6758 7.93453 20.5836 7.7119 20.4194 7.54775C20.2553 7.3836 20.0326 7.29139 19.8005 7.29139C19.5684 7.29139 19.3457 7.3836 19.1816 7.54775L17.375 9.35375V2.625C17.375 2.39294 17.2828 2.17038 17.1187 2.00628C16.9546 1.84219 16.7321 1.75 16.5 1.75C16.2679 1.75 16.0454 1.84219 15.8813 2.00628C15.7172 2.17038 15.625 2.39294 15.625 2.625V9.35375L13.819 7.54775C13.7377 7.46647 13.6412 7.402 13.535 7.35801C13.4288 7.31403 13.315 7.29139 13.2001 7.29139C13.0851 7.29139 12.9713 7.31403 12.8651 7.35801C12.7589 7.402 12.6624 7.46647 12.5812 7.54775C12.4999 7.62903 12.4354 7.72552 12.3914 7.83171C12.3474 7.9379 12.3248 8.05172 12.3248 8.16667C12.3248 8.28161 12.3474 8.39543 12.3914 8.50162C12.4354 8.60782 12.4999 8.70431 12.5812 8.78558L15.8817 12.0849Z" fill="white"/>
</g>
<defs>
<clipPath id="clip0_15_191">
<rect width="14" height="14" fill="white" transform="translate(0.5)"/>
</clipPath>
<clipPath id="clip1_15_191">
<rect width="14" height="14" fill="white" transform="matrix(-1 0 0 -1 23.5 14)"/>
</clipPath>
</defs>
</svg>
